<svg width="1200" height="720" viewBox="0 0 1200 720" fill="none" xmlns="http://www.w3.org/2000/svg">
  <defs>
    <linearGradient id="bg" x1="120" y1="40" x2="1100" y2="700" gradientUnits="userSpaceOnUse">
      <stop stop-color="#E0F2FE"/>
      <stop offset="1" stop-color="#ECFDF5"/>
    </linearGradient>
  </defs>
  <rect width="1200" height="720" rx="36" fill="url(#bg)"/>
  <rect x="172" y="120" width="856" height="480" rx="28" fill="#FFFFFF" stroke="#CCE0ED" stroke-width="2"/>
  <rect x="246" y="194" width="420" height="332" rx="20" fill="#0B1D30"/>
  <rect x="278" y="234" width="224" height="20" rx="10" fill="#2DD4BF"/>
  <rect x="278" y="272" width="312" height="12" rx="6" fill="#3D6388"/>
  <rect x="278" y="296" width="292" height="12" rx="6" fill="#3D6388"/>
  <rect x="278" y="338" width="344" height="84" rx="10" fill="#173E61"/>
  <rect x="278" y="438" width="126" height="42" rx="10" fill="#F97316"/>
  <path d="M776 280C776 236 812 200 856 200C900 200 936 236 936 280" stroke="#0F766E" stroke-width="14"/>
  <rect x="770" y="278" width="172" height="188" rx="22" fill="#F0FDFA" stroke="#A7DCD7" stroke-width="2"/>
  <circle cx="856" cy="352" r="30" fill="#0F766E" fill-opacity="0.16"/>
  <path d="M840 352L852 364L874 340" stroke="#0F766E" stroke-width="8" stroke-linecap="round" stroke-linejoin="round"/>
</svg>
