<svg width="1200" height="720" viewBox="0 0 1200 720" fill="none" xmlns="http://www.w3.org/2000/svg">
  <defs>
    <linearGradient id="bg" x1="0" y1="0" x2="1200" y2="720" gradientUnits="userSpaceOnUse">
      <stop stop-color="#EAF7FF"/>
      <stop offset="1" stop-color="#F8F7FF"/>
    </linearGradient>
    <linearGradient id="card" x1="188" y1="178" x2="1016" y2="550" gradientUnits="userSpaceOnUse">
      <stop stop-color="#FFFFFF"/>
      <stop offset="1" stop-color="#EDF7FF"/>
    </linearGradient>
  </defs>
  <rect width="1200" height="720" rx="36" fill="url(#bg)"/>
  <rect x="180" y="160" width="840" height="400" rx="28" fill="url(#card)" stroke="#C9DEEE" stroke-width="2"/>
  <rect x="228" y="224" width="220" height="288" rx="18" fill="#FFFFFF" stroke="#CDE1EF"/>
  <rect x="488" y="224" width="220" height="288" rx="18" fill="#FFFFFF" stroke="#CDE1EF"/>
  <rect x="748" y="224" width="220" height="288" rx="18" fill="#FFFFFF" stroke="#CDE1EF"/>
  <rect x="270" y="286" width="136" height="86" rx="14" fill="#0F766E" fill-opacity="0.12"/>
  <rect x="530" y="286" width="136" height="86" rx="14" fill="#1D4ED8" fill-opacity="0.12"/>
  <rect x="790" y="286" width="136" height="86" rx="14" fill="#F97316" fill-opacity="0.14"/>
  <rect x="260" y="396" width="156" height="16" rx="8" fill="#1E3A5B" fill-opacity="0.22"/>
  <rect x="520" y="396" width="156" height="16" rx="8" fill="#1E3A5B" fill-opacity="0.22"/>
  <rect x="780" y="396" width="156" height="16" rx="8" fill="#1E3A5B" fill-opacity="0.22"/>
  <rect x="278" y="430" width="120" height="12" rx="6" fill="#1E3A5B" fill-opacity="0.14"/>
  <rect x="538" y="430" width="120" height="12" rx="6" fill="#1E3A5B" fill-opacity="0.14"/>
  <rect x="798" y="430" width="120" height="12" rx="6" fill="#1E3A5B" fill-opacity="0.14"/>
  <path d="M365 133C428 89 527 89 590 133" stroke="#0F766E" stroke-width="8" stroke-linecap="round"/>
  <path d="M612 133C675 89 774 89 837 133" stroke="#F97316" stroke-width="8" stroke-linecap="round"/>
</svg>
