<svg width="1200" height="720" viewBox="0 0 1200 720" fill="none" xmlns="http://www.w3.org/2000/svg">
  <defs>
    <linearGradient id="bg" x1="80" y1="60" x2="1080" y2="680" gradientUnits="userSpaceOnUse">
      <stop stop-color="#ECFEFF"/>
      <stop offset="1" stop-color="#FFF7ED"/>
    </linearGradient>
  </defs>
  <rect width="1200" height="720" rx="36" fill="url(#bg)"/>
  <rect x="168" y="132" width="864" height="456" rx="28" fill="#FFFFFF" stroke="#CDE0ED" stroke-width="2"/>
  <rect x="252" y="184" width="292" height="352" rx="20" fill="#0B1D30"/>
  <rect x="288" y="224" width="220" height="54" rx="10" fill="#173E61"/>
  <rect x="288" y="300" width="64" height="54" rx="10" fill="#2A5679"/>
  <rect x="368" y="300" width="64" height="54" rx="10" fill="#2A5679"/>
  <rect x="448" y="300" width="64" height="54" rx="10" fill="#2A5679"/>
  <rect x="288" y="370" width="64" height="54" rx="10" fill="#2A5679"/>
  <rect x="368" y="370" width="64" height="54" rx="10" fill="#2A5679"/>
  <rect x="448" y="370" width="64" height="54" rx="10" fill="#F97316"/>
  <rect x="288" y="440" width="144" height="54" rx="10" fill="#0F766E"/>
  <rect x="448" y="440" width="64" height="54" rx="10" fill="#2A5679"/>
  <rect x="610" y="220" width="328" height="286" rx="20" fill="#F8FBFF" stroke="#CDE0ED"/>
  <rect x="648" y="264" width="250" height="18" rx="9" fill="#24506F" fill-opacity="0.28"/>
  <rect x="648" y="298" width="224" height="18" rx="9" fill="#24506F" fill-opacity="0.28"/>
  <rect x="648" y="332" width="192" height="18" rx="9" fill="#24506F" fill-opacity="0.28"/>
  <rect x="648" y="378" width="134" height="46" rx="10" fill="#0F766E"/>
</svg>
