<svg width="1200" height="720" viewBox="0 0 1200 720" fill="none" xmlns="http://www.w3.org/2000/svg">
  <defs>
    <linearGradient id="bg" x1="60" y1="40" x2="1120" y2="680" gradientUnits="userSpaceOnUse">
      <stop stop-color="#E6FFFA"/>
      <stop offset="1" stop-color="#FFF4E5"/>
    </linearGradient>
    <linearGradient id="panel" x1="190" y1="200" x2="1020" y2="580" gradientUnits="userSpaceOnUse">
      <stop stop-color="#0B1D30"/>
      <stop offset="1" stop-color="#123A5C"/>
    </linearGradient>
  </defs>
  <rect width="1200" height="720" rx="36" fill="url(#bg)"/>
  <circle cx="1110" cy="-20" r="180" fill="#99F6E4" fill-opacity="0.6"/>
  <circle cx="70" cy="680" r="180" fill="#FDBA74" fill-opacity="0.45"/>
  <rect x="156" y="156" width="888" height="408" rx="28" fill="url(#panel)"/>
  <rect x="220" y="232" width="280" height="256" rx="18" fill="#173E61"/>
  <rect x="548" y="232" width="420" height="74" rx="14" fill="#1B4D76"/>
  <rect x="548" y="326" width="332" height="20" rx="10" fill="#2A678E"/>
  <rect x="548" y="362" width="282" height="20" rx="10" fill="#2A678E"/>
  <rect x="548" y="398" width="228" height="20" rx="10" fill="#2A678E"/>
  <rect x="548" y="446" width="162" height="50" rx="12" fill="#0F766E"/>
  <rect x="730" y="446" width="170" height="50" rx="12" fill="#F97316"/>
  <path d="M260 418H420" stroke="#99F6E4" stroke-width="10" stroke-linecap="round"/>
  <path d="M260 382H470" stroke="#99F6E4" stroke-width="10" stroke-linecap="round"/>
  <path d="M260 346H404" stroke="#99F6E4" stroke-width="10" stroke-linecap="round"/>
  <rect x="244" y="252" width="148" height="76" rx="12" fill="#0F766E"/>
  <path d="M392 290H492" stroke="#F97316" stroke-width="8" stroke-dasharray="10 12"/>
  <path d="M492 290L478 278V302L492 290Z" fill="#F97316"/>
</svg>
