<svg width="1200" height="720" viewBox="0 0 1200 720" fill="none" xmlns="http://www.w3.org/2000/svg">
  <defs>
    <linearGradient id="bg" x1="82" y1="70" x2="1122" y2="688" gradientUnits="userSpaceOnUse">
      <stop stop-color="#DBEAFE"/>
      <stop offset="1" stop-color="#ECFEFF"/>
    </linearGradient>
  </defs>
  <rect width="1200" height="720" rx="36" fill="url(#bg)"/>
  <rect x="166" y="134" width="868" height="452" rx="28" fill="#FFFFFF" stroke="#CCE0ED" stroke-width="2"/>
  <rect x="232" y="210" width="364" height="300" rx="20" fill="#0B1D30"/>
  <rect x="272" y="254" width="284" height="18" rx="9" fill="#2DD4BF"/>
  <rect x="272" y="290" width="246" height="14" rx="7" fill="#335E84"/>
  <rect x="272" y="318" width="210" height="14" rx="7" fill="#335E84"/>
  <rect x="272" y="346" width="262" height="14" rx="7" fill="#335E84"/>
  <rect x="272" y="392" width="156" height="56" rx="12" fill="#F97316"/>
  <rect x="640" y="210" width="318" height="300" rx="20" fill="#F8FBFF" stroke="#CADFEB"/>
  <rect x="674" y="252" width="250" height="56" rx="12" fill="#E6F5FF"/>
  <rect x="674" y="328" width="250" height="56" rx="12" fill="#E9FAF7"/>
  <rect x="674" y="404" width="250" height="56" rx="12" fill="#FFF4E5"/>
  <path d="M704 284H822" stroke="#1E3A8A" stroke-width="9" stroke-linecap="round"/>
  <path d="M704 360H816" stroke="#0F766E" stroke-width="9" stroke-linecap="round"/>
  <path d="M704 436H840" stroke="#B45309" stroke-width="9" stroke-linecap="round"/>
</svg>
